<svg width="1128" height="228" viewBox="0 0 1128 228" fill="none" xmlns="http://www.w3.org/2000/svg">
<path opacity="0.6" d="M171.416 34.1409C186.766 44.6245 195.309 61.8106 197.98 80.4469C200.823 100.285 199.716 121.712 186.032 135.775C172.158 150.035 150.837 151.629 130.831 149.457C110.479 147.247 90.0446 140.927 78.6577 124.093C66.6612 106.358 64.5541 83.1374 72.3661 63.1309C79.8685 43.9173 97.5071 31.075 117.274 25.286C135.741 19.8776 155.475 23.2529 171.416 34.1409Z" stroke="#00DB2C" stroke-width="1.5"/>
<path d="M113.78 103H116.324C116.852 103 117.092 102.808 117.236 102.376L129.572 73.576C129.764 73.144 129.86 72.808 129.86 72.232V70.024C129.86 69.592 129.62 69.4 129.188 69.4H107.3C106.916 69.4 106.676 69.592 106.676 70.024V77.656C106.676 78.04 106.916 78.28 107.3 78.28H109.748C110.18 78.28 110.42 78.04 110.42 77.656V72.952H125.732L113.3 102.04C113.06 102.616 113.204 103 113.78 103ZM143.622 103.24H151.926C157.302 103.24 159.654 100.888 159.654 95.512V90.232C159.654 84.808 157.302 82.456 151.926 82.456H145.014C142.47 82.456 140.982 83.272 140.358 84.376H140.118V72.76H157.206C157.638 72.76 157.878 72.52 157.878 72.136V70.024C157.878 69.592 157.638 69.4 157.206 69.4H136.998C136.614 69.4 136.374 69.592 136.374 70.024V87.592C136.374 88.024 136.614 88.216 136.998 88.216H139.398C139.974 88.216 140.118 88.024 140.358 87.544C140.742 86.632 141.702 85.816 143.766 85.816H151.686C154.614 85.816 155.958 87.16 155.958 90.088V95.608C155.958 98.536 154.614 99.88 151.686 99.88H143.862C140.934 99.88 139.638 98.536 139.638 95.608V94.168C139.638 93.736 139.398 93.496 138.966 93.496H136.518C136.134 93.496 135.894 93.736 135.894 94.168V95.512C135.894 100.888 138.246 103.24 143.622 103.24Z" fill="#00DB2C"/>
<path d="M113.836 212.27C113.836 211.238 113.77 210.199 113.637 209.152C113.496 208.105 113.277 207.082 112.98 206.082C112.676 205.082 112.281 204.121 111.797 203.199C111.312 202.277 110.723 201.418 110.027 200.621L109.465 200.715L110.355 212.434L108.492 212.574L107.168 194.914C107.512 194.734 107.844 194.574 108.164 194.434C108.477 194.301 108.832 194.234 109.23 194.234C109.676 194.234 110.094 194.316 110.484 194.48C110.875 194.652 111.219 194.883 111.516 195.172C111.805 195.469 112.035 195.812 112.207 196.203C112.379 196.594 112.465 197.012 112.465 197.457C112.465 197.871 112.395 198.262 112.254 198.629C112.113 199.004 111.906 199.34 111.633 199.637C112.367 200.52 112.992 201.461 113.508 202.461C114.023 203.469 114.445 204.508 114.773 205.578C115.102 206.656 115.34 207.758 115.488 208.883C115.637 210.016 115.711 211.145 115.711 212.27H113.836ZM109.113 196.109L109.324 198.875C109.691 198.836 110 198.688 110.25 198.43C110.5 198.172 110.625 197.855 110.625 197.48C110.625 197.09 110.504 196.762 110.262 196.496C110.012 196.238 109.676 196.109 109.254 196.109H109.113ZM118.992 200.234L118.535 210.324L120.984 210.242L121.031 212.094L116.59 212.211L117.375 194.551L121.535 194.668L121.465 196.52L119.156 196.473L119.062 198.395L122.344 198.301L122.391 200.141L118.992 200.234ZM128.062 213.301V212.504C127.906 212.566 127.75 212.613 127.594 212.645C127.438 212.676 127.277 212.691 127.113 212.691C126.676 212.691 126.289 212.578 125.953 212.352C125.609 212.117 125.309 211.805 125.051 211.414C124.785 211.023 124.559 210.57 124.371 210.055C124.176 209.539 124.016 208.992 123.891 208.414C123.758 207.844 123.652 207.262 123.574 206.668C123.488 206.074 123.426 205.504 123.387 204.957C123.34 204.418 123.309 203.918 123.293 203.457C123.277 202.996 123.27 202.613 123.27 202.309C123.27 201.926 123.281 201.461 123.305 200.914C123.32 200.367 123.367 199.793 123.445 199.191C123.516 198.598 123.625 198.008 123.773 197.422C123.922 196.836 124.125 196.309 124.383 195.84C124.641 195.371 124.965 194.992 125.355 194.703C125.738 194.414 126.203 194.27 126.75 194.27C127.195 194.27 127.559 194.371 127.84 194.574C128.121 194.777 128.344 195.035 128.508 195.348C128.664 195.66 128.77 196.008 128.824 196.391C128.879 196.773 128.906 197.145 128.906 197.504C128.906 197.684 128.902 197.859 128.895 198.031C128.887 198.203 128.875 198.379 128.859 198.559L127.008 198.441C127.023 198.27 127.035 198.105 127.043 197.949C127.051 197.793 127.055 197.629 127.055 197.457C127.055 197.387 127.055 197.277 127.055 197.129C127.047 196.988 127.031 196.844 127.008 196.695C126.984 196.547 126.945 196.414 126.891 196.297C126.836 196.188 126.758 196.133 126.656 196.133C126.438 196.133 126.25 196.262 126.094 196.52C125.938 196.777 125.805 197.109 125.695 197.516C125.578 197.922 125.484 198.367 125.414 198.852C125.344 199.344 125.289 199.816 125.25 200.27C125.211 200.73 125.184 201.148 125.168 201.523C125.152 201.898 125.145 202.168 125.145 202.332C125.145 202.496 125.148 202.742 125.156 203.07C125.164 203.406 125.18 203.789 125.203 204.219C125.227 204.648 125.258 205.109 125.297 205.602C125.336 206.102 125.391 206.594 125.461 207.078C125.531 207.57 125.613 208.039 125.707 208.484C125.801 208.938 125.918 209.336 126.059 209.68C126.191 210.031 126.344 210.309 126.516 210.512C126.688 210.723 126.887 210.828 127.113 210.828C127.301 210.828 127.457 210.785 127.582 210.699C127.707 210.613 127.812 210.488 127.898 210.324C127.938 210.262 127.973 210.211 128.004 210.172C128.027 210.133 128.039 210.078 128.039 210.008V202.684L125.742 202.66L125.789 200.797L129.938 200.844V213.277L128.062 213.301ZM136.453 208.883C136.438 209.258 136.355 209.605 136.207 209.926C136.051 210.254 135.848 210.535 135.598 210.77C135.34 211.012 135.047 211.199 134.719 211.332C134.383 211.473 134.027 211.543 133.652 211.543C133.277 211.543 132.922 211.469 132.586 211.32C132.242 211.18 131.941 210.984 131.684 210.734C131.426 210.484 131.223 210.191 131.074 209.855C130.918 209.52 130.84 209.156 130.84 208.766V208.613L131.578 194.27L133.43 194.363L132.715 208.707C132.73 209.012 132.828 209.246 133.008 209.41C133.188 209.582 133.41 209.668 133.676 209.668C133.926 209.668 134.141 209.586 134.32 209.422C134.492 209.266 134.586 209.055 134.602 208.789L135.328 194.457L137.18 194.551L136.453 208.883ZM139.02 211.977L138.035 194.363L139.887 194.234L140.789 210.031L143.098 209.961L143.168 211.836L139.02 211.977ZM149.672 212.434L149.051 204.945L147.516 204.852L145.828 211.953L144.035 211.52L147.973 194.691L150.082 194.668L151.523 212.293L149.672 212.434ZM148.641 199.953L147.949 203L148.91 203.047L148.641 199.953ZM159.82 209.434C159.82 209.965 159.805 210.492 159.773 211.016C159.734 211.539 159.676 212.066 159.598 212.598L157.758 212.34C157.898 211.332 157.969 210.309 157.969 209.27C157.969 208.496 157.922 207.715 157.828 206.926C157.734 206.145 157.59 205.367 157.395 204.594C157.199 203.828 156.949 203.082 156.645 202.355C156.34 201.637 155.973 200.957 155.543 200.316H154.969L154.277 212.047L152.402 211.93L153.48 194.234C153.746 194.125 154.016 194.027 154.289 193.941C154.562 193.855 154.844 193.812 155.133 193.812C155.578 193.812 156 193.895 156.398 194.059C156.797 194.223 157.148 194.449 157.453 194.738C157.75 195.027 157.988 195.367 158.168 195.758C158.34 196.148 158.426 196.57 158.426 197.023C158.426 197.508 158.328 197.969 158.133 198.406C157.938 198.852 157.652 199.23 157.277 199.543C157.723 200.27 158.109 201.035 158.438 201.84C158.758 202.645 159.02 203.469 159.223 204.312C159.426 205.156 159.578 206.008 159.68 206.867L159.82 209.434ZM156.574 197C156.574 196.828 156.539 196.664 156.469 196.508C156.398 196.352 156.305 196.211 156.188 196.086C156.062 195.969 155.922 195.871 155.766 195.793C155.602 195.723 155.434 195.684 155.262 195.676L155.086 198.441C155.523 198.441 155.883 198.312 156.164 198.055L156.574 197Z" fill="white"/>
<path opacity="0.6" d="M493.18 61.3031C504.488 92.066 495.318 127.003 469.347 146.937C444.227 166.218 409.614 163.468 383.225 145.68C357.018 128.015 342.043 97.0595 350.311 66.696C358.874 35.25 387.089 13.0352 419.663 11.8038C452.297 10.5702 481.91 30.6436 493.18 61.3031Z" stroke="#FFA929" stroke-width="1.5"/>
<path d="M386.735 106H413.839C414.343 106 414.567 105.72 414.567 105.272V102.808C414.567 102.304 414.343 102.08 413.839 102.08H390.375V94.296C390.375 90.88 391.887 89.312 395.303 89.312H404.991C411.263 89.312 414.007 86.624 414.007 80.296V75.536C414.007 69.264 411.263 66.52 404.991 66.52H396.423C390.151 66.52 387.407 69.264 387.407 75.536V77.832C387.407 78.28 387.687 78.56 388.135 78.56H390.991C391.495 78.56 391.775 78.28 391.775 77.832V75.424C391.775 71.952 393.287 70.44 396.703 70.44H404.711C408.127 70.44 409.695 71.952 409.695 75.424V80.464C409.695 83.88 408.127 85.392 404.711 85.392H395.023C388.751 85.392 386.007 88.136 386.007 94.464V105.272C386.007 105.72 386.287 106 386.735 106ZM433.652 106.28H445.692C451.796 106.28 455.044 103.032 455.044 96.984V75.816C455.044 69.712 451.796 66.52 445.692 66.52H433.652C427.604 66.52 424.356 69.712 424.356 75.816V96.984C424.356 103.032 427.604 106.28 433.652 106.28ZM434.044 102.36C430.516 102.36 428.724 100.512 428.724 97.04V75.76C428.724 72.232 430.516 70.44 434.044 70.44H445.356C448.884 70.44 450.676 72.232 450.676 75.76V97.04C450.676 100.512 448.884 102.36 445.356 102.36H434.044Z" fill="#FFA929"/>
<path d="M408.125 215.359C408.125 213.984 408.036 212.599 407.859 211.203C407.672 209.807 407.38 208.443 406.984 207.109C406.578 205.776 406.052 204.495 405.406 203.266C404.76 202.036 403.974 200.891 403.047 199.828L402.297 199.953L403.484 215.578L401 215.766L399.234 192.219C399.693 191.979 400.135 191.766 400.562 191.578C400.979 191.401 401.453 191.312 401.984 191.312C402.578 191.312 403.135 191.422 403.656 191.641C404.177 191.87 404.635 192.177 405.031 192.562C405.417 192.958 405.724 193.417 405.953 193.938C406.182 194.458 406.297 195.016 406.297 195.609C406.297 196.161 406.203 196.682 406.016 197.172C405.828 197.672 405.552 198.12 405.188 198.516C406.167 199.693 407 200.948 407.688 202.281C408.375 203.625 408.938 205.01 409.375 206.438C409.812 207.875 410.13 209.344 410.328 210.844C410.526 212.354 410.625 213.859 410.625 215.359H408.125ZM401.828 193.812L402.109 197.5C402.599 197.448 403.01 197.25 403.344 196.906C403.677 196.562 403.844 196.141 403.844 195.641C403.844 195.12 403.682 194.682 403.359 194.328C403.026 193.984 402.578 193.812 402.016 193.812H401.828ZM419.312 215.578L418.484 205.594L416.438 205.469L414.188 214.938L411.797 214.359L417.047 191.922L419.859 191.891L421.781 215.391L419.312 215.578ZM417.938 198.938L417.016 203L418.297 203.062L417.938 198.938ZM432.844 211.578C432.844 212.286 432.823 212.99 432.781 213.688C432.729 214.385 432.651 215.089 432.547 215.797L430.094 215.453C430.281 214.109 430.375 212.745 430.375 211.359C430.375 210.328 430.312 209.286 430.188 208.234C430.062 207.193 429.87 206.156 429.609 205.125C429.349 204.104 429.016 203.109 428.609 202.141C428.203 201.182 427.714 200.276 427.141 199.422H426.375L425.453 215.062L422.953 214.906L424.391 191.312C424.745 191.167 425.104 191.036 425.469 190.922C425.833 190.807 426.208 190.75 426.594 190.75C427.188 190.75 427.75 190.859 428.281 191.078C428.812 191.297 429.281 191.599 429.688 191.984C430.083 192.37 430.401 192.823 430.641 193.344C430.87 193.865 430.984 194.427 430.984 195.031C430.984 195.677 430.854 196.292 430.594 196.875C430.333 197.469 429.953 197.974 429.453 198.391C430.047 199.359 430.562 200.38 431 201.453C431.427 202.526 431.776 203.625 432.047 204.75C432.318 205.875 432.521 207.01 432.656 208.156L432.844 211.578ZM428.516 195C428.516 194.771 428.469 194.552 428.375 194.344C428.281 194.135 428.156 193.948 428 193.781C427.833 193.625 427.646 193.495 427.438 193.391C427.219 193.297 426.995 193.245 426.766 193.234L426.531 196.922C427.115 196.922 427.594 196.75 427.969 196.406L428.516 195ZM437.219 199.312L436.609 212.766L439.875 212.656L439.938 215.125L434.016 215.281L435.062 191.734L440.609 191.891L440.516 194.359L437.438 194.297L437.312 196.859L441.688 196.734L441.75 199.188L437.219 199.312Z" fill="white"/>
<path opacity="0.6" d="M719.976 1.44487C744.683 4.75302 762.416 24.9641 775.317 46.7112C788.284 68.5695 796.764 93.592 788.665 117.289C780.166 142.156 759.17 161.395 733.762 168.55C709.294 175.441 683.947 167.042 662.691 152.687C641.512 138.384 623.446 118.166 621.931 93.072C620.448 68.5088 636.987 47.8251 655.353 30.6626C673.712 13.5058 695.51 -1.83096 719.976 1.44487Z" stroke="#D51287" stroke-width="2"/>
<path d="M700.883 120.476H717.364C728.033 120.476 732.701 115.808 732.701 105.139V94.6604C732.701 83.8959 728.033 79.2281 717.364 79.2281H703.646C698.597 79.2281 695.644 80.8475 694.406 83.0385H693.929V59.9852H727.842C728.7 59.9852 729.176 59.5089 729.176 58.7468V54.5553C729.176 53.698 728.7 53.3169 727.842 53.3169H687.737C686.975 53.3169 686.499 53.698 686.499 54.5553V89.421C686.499 90.2784 686.975 90.6594 687.737 90.6594H692.5C693.643 90.6594 693.929 90.2784 694.406 89.3258C695.168 87.5158 697.073 85.8964 701.169 85.8964H716.887C722.698 85.8964 725.366 88.5637 725.366 94.3746V105.33C725.366 111.141 722.698 113.808 716.887 113.808H701.36C695.549 113.808 692.977 111.141 692.977 105.33V102.472C692.977 101.615 692.5 101.138 691.643 101.138H686.785C686.022 101.138 685.546 101.615 685.546 102.472V105.139C685.546 115.808 690.214 120.476 700.883 120.476Z" fill="#D51287"/>
<path d="M664.297 217.082L660.938 217.316L655.371 189.23L658.418 188.684L661.719 205.48L662.48 188.352L665.605 188.488L664.297 217.082ZM671.055 198.391L670.293 215.207L674.375 215.07L674.453 218.156L667.051 218.352L668.359 188.918L675.293 189.113L675.176 192.199L671.328 192.121L671.172 195.324L676.641 195.168L676.719 198.234L671.055 198.391ZM689.727 213.723C689.727 214.608 689.701 215.487 689.648 216.359C689.583 217.232 689.486 218.111 689.355 218.996L686.289 218.566C686.523 216.887 686.641 215.181 686.641 213.449C686.641 212.16 686.562 210.858 686.406 209.543C686.25 208.241 686.009 206.945 685.684 205.656C685.358 204.38 684.941 203.137 684.434 201.926C683.926 200.728 683.314 199.595 682.598 198.527H681.641L680.488 218.078L677.363 217.883L679.16 188.391C679.603 188.208 680.052 188.046 680.508 187.902C680.964 187.759 681.432 187.688 681.914 187.688C682.656 187.688 683.359 187.824 684.023 188.098C684.688 188.371 685.273 188.749 685.781 189.23C686.276 189.712 686.673 190.279 686.973 190.93C687.259 191.581 687.402 192.284 687.402 193.039C687.402 193.846 687.24 194.615 686.914 195.344C686.589 196.086 686.113 196.717 685.488 197.238C686.23 198.449 686.875 199.725 687.422 201.066C687.956 202.408 688.392 203.781 688.73 205.188C689.069 206.594 689.323 208.013 689.492 209.445L689.727 213.723ZM684.316 193C684.316 192.714 684.258 192.44 684.141 192.18C684.023 191.919 683.867 191.685 683.672 191.477C683.464 191.281 683.229 191.118 682.969 190.988C682.695 190.871 682.415 190.806 682.129 190.793L681.836 195.402C682.565 195.402 683.164 195.188 683.633 194.758L684.316 193ZM698.887 188.684C698.652 190.103 698.411 191.561 698.164 193.059C697.904 194.569 697.643 196.086 697.383 197.609C697.122 199.133 696.868 200.643 696.621 202.141C696.361 203.651 696.12 205.122 695.898 206.555C695.938 208.169 696.029 209.777 696.172 211.379C696.302 212.98 696.4 214.549 696.465 216.086L693.34 216.242C693.314 215.604 693.294 215.096 693.281 214.719C693.268 214.354 693.255 214.029 693.242 213.742C693.229 213.456 693.216 213.156 693.203 212.844C693.19 212.544 693.171 212.141 693.145 211.633C693.118 211.138 693.086 210.493 693.047 209.699C693.008 208.905 692.956 207.87 692.891 206.594C692.448 204.875 692.07 203.404 691.758 202.18C691.432 200.969 691.159 199.927 690.938 199.055C690.716 198.195 690.534 197.473 690.391 196.887C690.234 196.314 690.098 195.806 689.98 195.363C689.863 194.921 689.759 194.517 689.668 194.152C689.564 193.788 689.453 193.384 689.336 192.941C689.219 192.512 689.089 192.01 688.945 191.438C688.789 190.865 688.6 190.148 688.379 189.289L691.367 188.527L694.062 198.918L695.82 188.195L698.887 188.684ZM720.703 213.723C720.703 214.608 720.677 215.487 720.625 216.359C720.56 217.232 720.462 218.111 720.332 218.996L717.266 218.566C717.5 216.887 717.617 215.181 717.617 213.449C717.617 212.16 717.539 210.858 717.383 209.543C717.227 208.241 716.986 206.945 716.66 205.656C716.335 204.38 715.918 203.137 715.41 201.926C714.902 200.728 714.29 199.595 713.574 198.527H712.617L711.465 218.078L708.34 217.883L710.137 188.391C710.579 188.208 711.029 188.046 711.484 187.902C711.94 187.759 712.409 187.688 712.891 187.688C713.633 187.688 714.336 187.824 715 188.098C715.664 188.371 716.25 188.749 716.758 189.23C717.253 189.712 717.65 190.279 717.949 190.93C718.236 191.581 718.379 192.284 718.379 193.039C718.379 193.846 718.216 194.615 717.891 195.344C717.565 196.086 717.09 196.717 716.465 197.238C717.207 198.449 717.852 199.725 718.398 201.066C718.932 202.408 719.368 203.781 719.707 205.188C720.046 206.594 720.299 208.013 720.469 209.445L720.703 213.723ZM715.293 193C715.293 192.714 715.234 192.44 715.117 192.18C715 191.919 714.844 191.685 714.648 191.477C714.44 191.281 714.206 191.118 713.945 190.988C713.672 190.871 713.392 190.806 713.105 190.793L712.812 195.402C713.542 195.402 714.141 195.188 714.609 194.758L715.293 193ZM731.562 218.723L730.527 206.242L727.969 206.086L725.156 217.922L722.168 217.199L728.73 189.152L732.246 189.113L734.648 218.488L731.562 218.723ZM729.844 197.922L728.691 203L730.293 203.078L729.844 197.922ZM748.477 213.723C748.477 214.608 748.451 215.487 748.398 216.359C748.333 217.232 748.236 218.111 748.105 218.996L745.039 218.566C745.273 216.887 745.391 215.181 745.391 213.449C745.391 212.16 745.312 210.858 745.156 209.543C745 208.241 744.759 206.945 744.434 205.656C744.108 204.38 743.691 203.137 743.184 201.926C742.676 200.728 742.064 199.595 741.348 198.527H740.391L739.238 218.078L736.113 217.883L737.91 188.391C738.353 188.208 738.802 188.046 739.258 187.902C739.714 187.759 740.182 187.688 740.664 187.688C741.406 187.688 742.109 187.824 742.773 188.098C743.438 188.371 744.023 188.749 744.531 189.23C745.026 189.712 745.423 190.279 745.723 190.93C746.009 191.581 746.152 192.284 746.152 193.039C746.152 193.846 745.99 194.615 745.664 195.344C745.339 196.086 744.863 196.717 744.238 197.238C744.98 198.449 745.625 199.725 746.172 201.066C746.706 202.408 747.142 203.781 747.48 205.188C747.819 206.594 748.073 208.013 748.242 209.445L748.477 213.723ZM743.066 193C743.066 192.714 743.008 192.44 742.891 192.18C742.773 191.919 742.617 191.685 742.422 191.477C742.214 191.281 741.979 191.118 741.719 190.988C741.445 190.871 741.165 190.806 740.879 190.793L740.586 195.402C741.315 195.402 741.914 195.188 742.383 194.758L743.066 193ZM753.945 198.391L753.184 215.207L757.266 215.07L757.344 218.156L749.941 218.352L751.25 188.918L758.184 189.113L758.066 192.199L754.219 192.121L754.062 195.324L759.531 195.168L759.609 198.234L753.945 198.391Z" fill="white"/>
<path opacity="0.6" d="M1024.3 45.2375C1036.37 53.4807 1043.08 66.9905 1045.18 81.6304C1047.41 97.2011 1046.55 114.05 1035.78 125.116C1024.87 136.336 1008.1 137.582 992.398 135.877C976.423 134.143 960.355 129.18 951.398 115.938C941.968 101.998 940.313 83.7474 946.452 68.0244C952.351 52.9166 966.217 42.8254 981.745 38.278C996.261 34.0268 1011.77 36.6802 1024.3 45.2375Z" stroke="white"/>
<path d="M989.57 94.76H984.738V75.016C984.738 74.728 984.578 74.6 984.29 74.6H978.018C977.762 74.6 977.602 74.728 977.602 75.016V76.424C977.602 76.68 977.762 76.84 978.018 76.84H982.242V94.76H977.218C976.962 94.76 976.802 94.888 976.802 95.176V96.584C976.802 96.84 976.962 97 977.218 97H989.57C989.858 97 990.018 96.84 990.018 96.584V95.176C990.018 94.888 989.858 94.76 989.57 94.76ZM998.999 97.16H1005.88C1009.37 97.16 1011.22 95.304 1011.22 91.848V79.752C1011.22 76.264 1009.37 74.44 1005.88 74.44H998.999C995.543 74.44 993.687 76.264 993.687 79.752V91.848C993.687 95.304 995.543 97.16 998.999 97.16ZM999.223 94.92C997.207 94.92 996.183 93.864 996.183 91.88V79.72C996.183 77.704 997.207 76.68 999.223 76.68H1005.69C1007.7 76.68 1008.73 77.704 1008.73 79.72V91.88C1008.73 93.864 1007.7 94.92 1005.69 94.92H999.223Z" fill="white"/>
<path d="M947.625 211.285L947.215 197.891L946.383 198.875L944.941 197.668L947.168 195.055L948.973 194.984L949.5 211.227L947.625 211.285ZM961.582 203.457C961.582 204.004 961.535 204.566 961.441 205.145C961.34 205.723 961.188 206.281 960.984 206.82C960.781 207.367 960.527 207.883 960.223 208.367C959.918 208.859 959.559 209.285 959.145 209.645C958.73 210.012 958.262 210.301 957.738 210.512C957.207 210.723 956.625 210.828 955.992 210.828C955.352 210.828 954.77 210.723 954.246 210.512C953.715 210.301 953.242 210.016 952.828 209.656C952.414 209.297 952.055 208.875 951.75 208.391C951.438 207.906 951.18 207.391 950.977 206.844C950.773 206.297 950.625 205.734 950.531 205.156C950.43 204.578 950.379 204.012 950.379 203.457C950.379 202.934 950.434 202.387 950.543 201.816C950.652 201.246 950.816 200.688 951.035 200.141C951.246 199.594 951.512 199.074 951.832 198.582C952.145 198.09 952.512 197.66 952.934 197.293C953.348 196.926 953.812 196.633 954.328 196.414C954.836 196.195 955.391 196.086 955.992 196.086C956.594 196.086 957.152 196.195 957.668 196.414C958.176 196.633 958.637 196.926 959.051 197.293C959.465 197.668 959.832 198.102 960.152 198.594C960.465 199.086 960.727 199.605 960.938 200.152C961.148 200.699 961.309 201.254 961.418 201.816L961.582 203.457ZM959.719 203.457C959.719 203.09 959.691 202.699 959.637 202.285C959.574 201.871 959.48 201.457 959.355 201.043C959.223 200.637 959.059 200.246 958.863 199.871C958.668 199.504 958.434 199.176 958.16 198.887C957.879 198.605 957.559 198.379 957.199 198.207C956.84 198.043 956.438 197.961 955.992 197.961C955.539 197.961 955.133 198.043 954.773 198.207C954.414 198.379 954.098 198.605 953.824 198.887C953.543 199.168 953.305 199.492 953.109 199.859C952.914 200.234 952.754 200.625 952.629 201.031C952.496 201.445 952.402 201.859 952.348 202.273C952.285 202.688 952.254 203.082 952.254 203.457C952.254 203.824 952.285 204.215 952.348 204.629C952.402 205.051 952.496 205.465 952.629 205.871C952.754 206.285 952.914 206.68 953.109 207.055C953.305 207.43 953.543 207.758 953.824 208.039C954.098 208.328 954.414 208.555 954.773 208.719C955.133 208.891 955.539 208.977 955.992 208.977C956.438 208.977 956.84 208.891 957.199 208.719C957.559 208.547 957.879 208.316 958.16 208.027C958.434 207.746 958.668 207.418 958.863 207.043C959.059 206.668 959.223 206.273 959.355 205.859C959.48 205.453 959.574 205.043 959.637 204.629L959.719 203.457ZM970.664 196.684L971.625 211.883L969.75 212L968.789 196.789L967.371 196.883L967.254 195.008L971.953 194.715L972.082 196.59L970.664 196.684ZM980.367 209.434C980.367 209.965 980.352 210.492 980.32 211.016C980.281 211.539 980.223 212.066 980.145 212.598L978.305 212.34C978.445 211.332 978.516 210.309 978.516 209.27C978.516 208.496 978.469 207.715 978.375 206.926C978.281 206.145 978.137 205.367 977.941 204.594C977.746 203.828 977.496 203.082 977.191 202.355C976.887 201.637 976.52 200.957 976.09 200.316H975.516L974.824 212.047L972.949 211.93L974.027 194.234C974.293 194.125 974.562 194.027 974.836 193.941C975.109 193.855 975.391 193.812 975.68 193.812C976.125 193.812 976.547 193.895 976.945 194.059C977.344 194.223 977.695 194.449 978 194.738C978.297 195.027 978.535 195.367 978.715 195.758C978.887 196.148 978.973 196.57 978.973 197.023C978.973 197.508 978.875 197.969 978.68 198.406C978.484 198.852 978.199 199.23 977.824 199.543C978.27 200.27 978.656 201.035 978.984 201.84C979.305 202.645 979.566 203.469 979.77 204.312C979.973 205.156 980.125 206.008 980.227 206.867L980.367 209.434ZM977.121 197C977.121 196.828 977.086 196.664 977.016 196.508C976.945 196.352 976.852 196.211 976.734 196.086C976.609 195.969 976.469 195.871 976.312 195.793C976.148 195.723 975.98 195.684 975.809 195.676L975.633 198.441C976.07 198.441 976.43 198.312 976.711 198.055L977.121 197ZM983.648 200.234L983.191 210.324L985.641 210.242L985.688 212.094L981.246 212.211L982.031 194.551L986.191 194.668L986.121 196.52L983.812 196.473L983.719 198.395L987 198.301L987.047 200.141L983.648 200.234ZM989.836 200.234L989.379 210.324L991.828 210.242L991.875 212.094L987.434 212.211L988.219 194.551L992.379 194.668L992.309 196.52L990 196.473L989.906 198.395L993.188 198.301L993.234 200.141L989.836 200.234ZM1002.33 196.684L1003.29 211.883L1001.41 212L1000.45 196.789L999.035 196.883L998.918 195.008L1003.62 194.715L1003.75 196.59L1002.33 196.684ZM1015.09 203.457C1015.09 204.004 1015.04 204.566 1014.95 205.145C1014.85 205.723 1014.7 206.281 1014.49 206.82C1014.29 207.367 1014.04 207.883 1013.73 208.367C1013.43 208.859 1013.07 209.285 1012.65 209.645C1012.24 210.012 1011.77 210.301 1011.25 210.512C1010.71 210.723 1010.13 210.828 1009.5 210.828C1008.86 210.828 1008.28 210.723 1007.75 210.512C1007.22 210.301 1006.75 210.016 1006.34 209.656C1005.92 209.297 1005.56 208.875 1005.26 208.391C1004.95 207.906 1004.69 207.391 1004.48 206.844C1004.28 206.297 1004.13 205.734 1004.04 205.156C1003.94 204.578 1003.89 204.012 1003.89 203.457C1003.89 202.91 1003.94 202.348 1004.04 201.77C1004.14 201.191 1004.3 200.629 1004.51 200.082C1004.71 199.535 1004.97 199.02 1005.28 198.535C1005.59 198.051 1005.95 197.625 1006.36 197.258C1006.77 196.898 1007.24 196.613 1007.77 196.402C1008.29 196.191 1008.87 196.086 1009.5 196.086C1010.12 196.086 1010.69 196.191 1011.21 196.402C1011.73 196.621 1012.19 196.914 1012.61 197.281C1013.02 197.648 1013.38 198.074 1013.7 198.559C1014.01 199.051 1014.27 199.57 1014.48 200.117C1014.68 200.664 1014.84 201.223 1014.94 201.793L1015.09 203.457ZM1013.23 203.457C1013.23 203.09 1013.2 202.699 1013.14 202.285C1013.08 201.871 1012.99 201.457 1012.86 201.043C1012.73 200.637 1012.57 200.246 1012.37 199.871C1012.18 199.504 1011.94 199.176 1011.67 198.887C1011.39 198.605 1011.07 198.379 1010.71 198.207C1010.35 198.043 1009.95 197.961 1009.5 197.961C1009.05 197.961 1008.64 198.043 1008.28 198.207C1007.92 198.379 1007.61 198.605 1007.33 198.887C1007.05 199.168 1006.81 199.492 1006.62 199.859C1006.42 200.234 1006.26 200.625 1006.14 201.031C1006 201.445 1005.91 201.859 1005.86 202.273C1005.79 202.688 1005.76 203.082 1005.76 203.457C1005.76 203.824 1005.79 204.215 1005.86 204.629C1005.91 205.051 1006 205.465 1006.14 205.871C1006.26 206.285 1006.42 206.68 1006.62 207.055C1006.81 207.43 1007.05 207.758 1007.33 208.039C1007.61 208.328 1007.92 208.555 1008.28 208.719C1008.64 208.891 1009.05 208.977 1009.5 208.977C1009.95 208.977 1010.35 208.891 1010.71 208.719C1011.07 208.547 1011.39 208.316 1011.67 208.027C1011.94 207.746 1012.18 207.418 1012.37 207.043C1012.57 206.668 1012.73 206.273 1012.86 205.859C1012.99 205.453 1013.08 205.043 1013.14 204.629L1013.23 203.457ZM1021.48 213.348L1019.03 201.277L1018.38 202.332L1017.83 211.906L1015.96 211.812L1016.96 194.211L1018.84 194.316L1018.59 198.395L1021.21 194.094L1022.77 195.055L1020.45 198.922L1023.28 212.984L1021.48 213.348ZM1026.54 200.234L1026.08 210.324L1028.53 210.242L1028.58 212.094L1024.14 212.211L1024.92 194.551L1029.08 194.668L1029.01 196.52L1026.7 196.473L1026.61 198.395L1029.89 198.301L1029.94 200.141L1026.54 200.234ZM1038.02 211.859L1036.03 211.766L1032.82 199.637L1032.2 211.613L1030.32 211.496L1031.26 194.117L1033.3 194.234L1036.46 206.141L1037.09 194.293L1038.96 194.41L1038.02 211.859ZM1044.06 207.371C1044.06 207.941 1043.96 208.465 1043.77 208.941C1043.56 209.418 1043.29 209.828 1042.93 210.172C1042.58 210.516 1042.17 210.781 1041.69 210.969C1041.21 211.164 1040.68 211.262 1040.12 211.262L1040.18 209.41C1040.49 209.41 1040.77 209.359 1041.02 209.258C1041.27 209.156 1041.49 209.016 1041.67 208.836C1041.84 208.656 1041.98 208.438 1042.08 208.18C1042.17 207.93 1042.22 207.652 1042.22 207.348C1042.22 207.152 1042.2 206.957 1042.16 206.762C1042.11 206.574 1042.07 206.383 1042.02 206.188L1040.03 199.086C1039.96 198.883 1039.92 198.672 1039.89 198.453C1039.86 198.242 1039.84 198.031 1039.84 197.82C1039.84 197.344 1039.93 196.91 1040.1 196.52C1040.26 196.137 1040.49 195.801 1040.79 195.512C1041.08 195.23 1041.42 195.004 1041.82 194.832C1042.22 194.668 1042.64 194.566 1043.1 194.527L1043.27 196.379C1043.05 196.395 1042.85 196.434 1042.66 196.496C1042.47 196.559 1042.3 196.648 1042.16 196.766C1042.01 196.883 1041.9 197.027 1041.82 197.199C1041.73 197.371 1041.69 197.578 1041.69 197.82C1041.69 197.953 1041.7 198.082 1041.73 198.207C1041.74 198.34 1041.77 198.465 1041.81 198.582L1043.82 205.684C1043.89 205.957 1043.95 206.234 1044 206.516L1044.06 207.371Z" fill="white"/>
<path fill-rule="evenodd" clip-rule="evenodd" d="M329.036 86.3752C306.429 84.282 283.439 85.4398 260.775 85.0629C245.788 84.8108 230.8 84.2034 215.825 84.0001C215.376 83.9946 215.006 84.3525 215 84.8026C214.994 85.2527 215.354 85.6214 215.802 85.6269C230.777 85.8302 245.763 86.4376 260.748 86.6897C283.371 87.0666 306.318 85.9061 328.884 87.9966C329.332 88.0373 329.727 87.7092 329.771 87.2618C329.811 86.8145 329.481 86.4186 329.036 86.3752Z" fill="white"/>
<path fill-rule="evenodd" clip-rule="evenodd" d="M607.16 86.3752C588.493 84.282 569.511 85.4398 550.797 85.0629C538.422 84.8108 526.047 84.2034 513.681 84.0001C513.31 83.9946 513.005 84.3525 513 84.8026C512.995 85.2527 513.292 85.6214 513.663 85.6269C526.027 85.8302 538.401 86.4376 550.774 86.6897C569.455 87.0666 588.402 85.9061 607.035 87.9966C607.405 88.0373 607.731 87.7092 607.767 87.2618C607.801 86.8145 607.528 86.4186 607.16 86.3752Z" fill="white"/>
<path fill-rule="evenodd" clip-rule="evenodd" d="M920.293 86.3752C898.626 84.282 876.592 85.4398 854.871 85.0629C840.508 84.8108 826.143 84.2034 811.79 84.0001C811.36 83.9946 811.006 84.3525 811 84.8026C810.994 85.2527 811.339 85.6214 811.769 85.6269C826.12 85.8302 840.483 86.4376 854.845 86.6897C876.527 87.0666 898.519 85.9061 920.147 87.9966C920.576 88.0373 920.955 87.7092 920.997 87.2618C921.036 86.8145 920.719 86.4186 920.293 86.3752Z" fill="white"/>
</svg>
